<?xml version="1.0" encoding="UTF-8"?>
<!DOCTYPE svg PUBLIC "-//W3C//DTD SVG 1.1//EN" "http://www.w3.org/Graphics/SVG/1.1/DTD/svg11.dtd">
<svg xmlns="http://www.w3.org/2000/svg" version="1.1" width="1500px" height="1500px" style="shape-rendering:geometricPrecision; text-rendering:geometricPrecision; image-rendering:optimizeQuality; fill-rule:evenodd; clip-rule:evenodd" xmlns:xlink="http://www.w3.org/1999/xlink">
<g><path style="opacity:1" fill="#faf9f9" d="M -0.5,-0.5 C 499.5,-0.5 999.5,-0.5 1499.5,-0.5C 1499.5,499.5 1499.5,999.5 1499.5,1499.5C 999.5,1499.5 499.5,1499.5 -0.5,1499.5C -0.5,999.5 -0.5,499.5 -0.5,-0.5 Z"/></g>
<g><path style="opacity:1" fill="#fa0000" d="M 733.5,33.5 C 778.221,30.2163 817.221,43.3829 850.5,73C 861.484,83.5041 871.65,94.6708 881,106.5C 916.484,142.326 959.317,156.159 1009.5,148C 1049.64,135.08 1089.64,135.413 1129.5,149C 1175.48,170.414 1204.32,205.914 1216,255.5C 1218.94,274.412 1221.28,293.412 1223,312.5C 1235.65,366.148 1268.15,401.648 1320.5,419C 1362.37,436.867 1392.2,466.701 1410,508.5C 1422.39,549.629 1419.39,589.629 1401,628.5C 1390.87,645.093 1381.54,662.093 1373,679.5C 1359.14,719.874 1362.14,758.874 1382,796.5C 1407.2,830.098 1419.2,868.098 1418,910.5C 1413.19,953.619 1393.69,988.453 1359.5,1015C 1341.82,1028.02 1322.49,1038.02 1301.5,1045C 1257.53,1066.38 1231.03,1101.22 1222,1149.5C 1222.25,1184.35 1214.25,1217.02 1198,1247.5C 1164.84,1299.79 1117.01,1322.96 1054.5,1317C 1039.61,1315.41 1024.95,1312.74 1010.5,1309C 961.205,1300.05 918.872,1312.88 883.5,1347.5C 870.856,1363.94 856.523,1378.78 840.5,1392C 800.303,1421.46 755.97,1429.8 707.5,1417C 676.501,1406.03 650.334,1387.87 629,1362.5C 601.054,1325.14 563.554,1306.48 516.5,1306.5C 501.095,1306.3 486.095,1308.47 471.5,1313C 439.867,1319.74 408.534,1318.74 377.5,1310C 327.691,1289.86 296.524,1253.69 284,1201.5C 283.797,1195.99 282.797,1190.66 281,1185.5C 282.493,1131.54 261.993,1088.37 219.5,1056C 205.214,1047.46 190.214,1040.46 174.5,1035C 100.962,998.763 71.7953,940.263 87,859.5C 89.8515,851.082 92.8515,842.748 96,834.5C 106.468,816.38 116.468,798.047 126,779.5C 141.2,737.646 138.2,697.313 117,658.5C 86.1451,616.085 76.1451,569.085 87,517.5C 99.3973,480.094 122.564,451.26 156.5,431C 170.26,424.083 184.26,417.749 198.5,412C 240.736,391.439 266.902,358.273 277,312.5C 278.002,289.108 281.336,266.108 287,243.5C 309.743,177.292 356.243,142.292 426.5,138.5C 447.938,139.157 468.938,142.324 489.5,148C 549.777,157.032 597.944,137.198 634,88.5C 660.853,58.4956 694.019,40.1623 733.5,33.5 Z"/></g>
<g><path style="opacity:1" fill="#fa5d5c" d="M 782.5,879.5 C 784.943,876.242 787.943,873.409 791.5,871C 792.9,869.562 794.567,868.729 796.5,868.5C 796.281,867.325 796.614,866.325 797.5,865.5C 805.321,857.846 812.987,850.012 820.5,842C 821.9,840.562 823.567,839.729 825.5,839.5C 825.281,838.325 825.614,837.325 826.5,836.5C 830.167,832.833 833.833,829.167 837.5,825.5C 838.325,824.614 839.325,824.281 840.5,824.5C 840.729,822.567 841.562,820.9 843,819.5C 851.012,811.987 858.846,804.321 866.5,796.5C 867.325,795.614 868.325,795.281 869.5,795.5C 869.729,793.567 870.562,791.9 872,790.5C 883.5,780.333 894.333,769.5 904.5,758C 905.9,756.562 907.567,755.729 909.5,755.5C 909.281,754.325 909.614,753.325 910.5,752.5C 918.321,744.846 925.987,737.012 933.5,729C 934.9,727.562 936.567,726.729 938.5,726.5C 938.281,725.325 938.614,724.325 939.5,723.5C 952.5,709.833 965.833,696.5 979.5,683.5C 980.325,682.614 981.325,682.281 982.5,682.5C 982.729,680.567 983.562,678.9 985,677.5C 1001.33,661.5 1017.67,645.5 1034,629.5C 1041.76,621.531 1047.76,612.531 1052,602.5C 1052.67,593.5 1052.67,584.5 1052,575.5C 1050.2,573.091 1049.04,570.424 1048.5,567.5C 1050.02,566.826 1051.36,565.826 1052.5,564.5C 1053.39,563.675 1053.72,562.675 1053.5,561.5C 1054.5,561.5 1055.5,561.5 1056.5,561.5C 1056.5,560.5 1056.5,559.5 1056.5,558.5C 1057.5,558.5 1058.5,558.5 1059.5,558.5C 1059.5,557.5 1059.5,556.5 1059.5,555.5C 1060.5,555.5 1061.5,555.5 1062.5,555.5C 1062.5,554.5 1062.5,553.5 1062.5,552.5C 1063.5,552.5 1064.5,552.5 1065.5,552.5C 1065.5,551.5 1065.5,550.5 1065.5,549.5C 1070.92,546.82 1076.25,543.987 1081.5,541C 1086.8,540.789 1091.96,539.955 1097,538.5C 1102.16,539.665 1107.33,540.832 1112.5,542C 1116.93,544.893 1121.59,547.393 1126.5,549.5C 1126.5,550.5 1126.5,551.5 1126.5,552.5C 1127.5,552.5 1128.5,552.5 1129.5,552.5C 1129.35,553.552 1129.52,554.552 1130,555.5C 1135.95,562.453 1139.62,570.453 1141,579.5C 1139.07,585.857 1138.23,592.524 1138.5,599.5C 1137.5,599.5 1136.5,599.5 1135.5,599.5C 1135.63,603.286 1134.46,606.619 1132,609.5C 1128.55,613.403 1124.89,617.07 1121,620.5C 1119.56,621.9 1118.73,623.567 1118.5,625.5C 1117.5,625.5 1116.5,625.5 1115.5,625.5C 1115.5,626.5 1115.5,627.5 1115.5,628.5C 1114.5,628.5 1113.5,628.5 1112.5,628.5C 1112.5,629.5 1112.5,630.5 1112.5,631.5C 1111.5,631.5 1110.5,631.5 1109.5,631.5C 1109.5,632.5 1109.5,633.5 1109.5,634.5C 1108.5,634.5 1107.5,634.5 1106.5,634.5C 1106.5,635.5 1106.5,636.5 1106.5,637.5C 1101.07,640.653 1096.23,644.653 1092,649.5C 1090.56,650.9 1089.73,652.567 1089.5,654.5C 1088.5,654.5 1087.5,654.5 1086.5,654.5C 1086.5,655.5 1086.5,656.5 1086.5,657.5C 1085.5,657.5 1084.5,657.5 1083.5,657.5C 1083.5,658.5 1083.5,659.5 1083.5,660.5C 1082.5,660.5 1081.5,660.5 1080.5,660.5C 1080.5,661.5 1080.5,662.5 1080.5,663.5C 1079.5,663.5 1078.5,663.5 1077.5,663.5C 1077.5,664.5 1077.5,665.5 1077.5,666.5C 1075.57,666.729 1073.9,667.562 1072.5,669C 1069.67,672.5 1066.5,675.667 1063,678.5C 1061.56,679.9 1060.73,681.567 1060.5,683.5C 1059.5,683.5 1058.5,683.5 1057.5,683.5C 1057.5,684.5 1057.5,685.5 1057.5,686.5C 1056.5,686.5 1055.5,686.5 1054.5,686.5C 1054.5,687.5 1054.5,688.5 1054.5,689.5C 1053.5,689.5 1052.5,689.5 1051.5,689.5C 1051.5,690.5 1051.5,691.5 1051.5,692.5C 1050.5,692.5 1049.5,692.5 1048.5,692.5C 1048.5,693.5 1048.5,694.5 1048.5,695.5C 1042.34,699.093 1037,703.76 1032.5,709.5C 1031.61,710.325 1031.28,711.325 1031.5,712.5C 1030.5,712.5 1029.5,712.5 1028.5,712.5C 1028.5,713.5 1028.5,714.5 1028.5,715.5C 1027.5,715.5 1026.5,715.5 1025.5,715.5C 1025.5,716.5 1025.5,717.5 1025.5,718.5C 1024.5,718.5 1023.5,718.5 1022.5,718.5C 1022.5,719.5 1022.5,720.5 1022.5,721.5C 1021.5,721.5 1020.5,721.5 1019.5,721.5C 1019.5,722.5 1019.5,723.5 1019.5,724.5C 1017.57,724.729 1015.9,725.562 1014.5,727C 1012.33,729.167 1010.17,731.333 1008,733.5C 1006.56,734.9 1005.73,736.567 1005.5,738.5C 1004.5,738.5 1003.5,738.5 1002.5,738.5C 1002.5,739.5 1002.5,740.5 1002.5,741.5C 1001.5,741.5 1000.5,741.5 999.5,741.5C 999.5,742.5 999.5,743.5 999.5,744.5C 998.5,744.5 997.5,744.5 996.5,744.5C 996.5,745.5 996.5,746.5 996.5,747.5C 995.5,747.5 994.5,747.5 993.5,747.5C 993.5,748.5 993.5,749.5 993.5,750.5C 992.5,750.5 991.5,750.5 990.5,750.5C 990.5,751.5 990.5,752.5 990.5,753.5C 988.567,753.729 986.9,754.562 985.5,756C 983.333,758.167 981.167,760.333 979,762.5C 977.562,763.9 976.729,765.567 976.5,767.5C 975.5,767.5 974.5,767.5 973.5,767.5C 973.5,768.5 973.5,769.5 973.5,770.5C 972.5,770.5 971.5,770.5 970.5,770.5C 970.5,771.5 970.5,772.5 970.5,773.5C 969.5,773.5 968.5,773.5 967.5,773.5C 967.5,774.5 967.5,775.5 967.5,776.5C 966.5,776.5 965.5,776.5 964.5,776.5C 964.5,777.5 964.5,778.5 964.5,779.5C 962.567,779.729 960.9,780.562 959.5,782C 956.667,785.5 953.5,788.667 950,791.5C 948.562,792.9 947.729,794.567 947.5,796.5C 946.5,796.5 945.5,796.5 944.5,796.5C 944.5,797.5 944.5,798.5 944.5,799.5C 943.5,799.5 942.5,799.5 941.5,799.5C 941.5,800.5 941.5,801.5 941.5,802.5C 940.5,802.5 939.5,802.5 938.5,802.5C 938.5,803.5 938.5,804.5 938.5,805.5C 937.5,805.5 936.5,805.5 935.5,805.5C 935.5,806.5 935.5,807.5 935.5,808.5C 933.567,808.729 931.9,809.562 930.5,811C 925.653,815.233 921.653,820.067 918.5,825.5C 917.5,825.5 916.5,825.5 915.5,825.5C 915.5,826.5 915.5,827.5 915.5,828.5C 914.5,828.5 913.5,828.5 912.5,828.5C 912.5,829.5 912.5,830.5 912.5,831.5C 911.5,831.5 910.5,831.5 909.5,831.5C 909.5,832.5 909.5,833.5 909.5,834.5C 908.5,834.5 907.5,834.5 906.5,834.5C 906.5,835.5 906.5,836.5 906.5,837.5C 904.567,837.729 902.9,838.562 901.5,840C 899.333,842.167 897.167,844.333 895,846.5C 893.562,847.9 892.729,849.567 892.5,851.5C 891.5,851.5 890.5,851.5 889.5,851.5C 889.5,852.5 889.5,853.5 889.5,854.5C 888.5,854.5 887.5,854.5 886.5,854.5C 886.5,855.5 886.5,856.5 886.5,857.5C 885.5,857.5 884.5,857.5 883.5,857.5C 883.5,858.5 883.5,859.5 883.5,860.5C 875.733,866.06 867.733,871.56 859.5,877C 854.988,878.957 850.321,880.79 845.5,882.5C 842.215,883.324 838.882,883.824 835.5,884C 834.833,884.667 834.167,885.333 833.5,886C 823.833,886.667 814.167,886.667 804.5,886C 803.833,885.333 803.167,884.667 802.5,884C 798.459,883.827 794.459,883.327 790.5,882.5C 788.027,881.004 785.36,880.004 782.5,879.5 Z"/></g>
<g><path style="opacity:1" fill="#faf9f9" d="M 1048.5,567.5 C 1049.04,570.424 1050.2,573.091 1052,575.5C 1052.67,584.5 1052.67,593.5 1052,602.5C 1047.76,612.531 1041.76,621.531 1034,629.5C 1017.67,645.5 1001.33,661.5 985,677.5C 983.562,678.9 982.729,680.567 982.5,682.5C 981.325,682.281 980.325,682.614 979.5,683.5C 965.833,696.5 952.5,709.833 939.5,723.5C 938.614,724.325 938.281,725.325 938.5,726.5C 936.567,726.729 934.9,727.562 933.5,729C 925.987,737.012 918.321,744.846 910.5,752.5C 909.614,753.325 909.281,754.325 909.5,755.5C 907.567,755.729 905.9,756.562 904.5,758C 894.333,769.5 883.5,780.333 872,790.5C 870.562,791.9 869.729,793.567 869.5,795.5C 868.325,795.281 867.325,795.614 866.5,796.5C 858.846,804.321 851.012,811.987 843,819.5C 841.562,820.9 840.729,822.567 840.5,824.5C 839.325,824.281 838.325,824.614 837.5,825.5C 833.833,829.167 830.167,832.833 826.5,836.5C 825.614,837.325 825.281,838.325 825.5,839.5C 823.567,839.729 821.9,840.562 820.5,842C 812.987,850.012 805.321,857.846 797.5,865.5C 796.614,866.325 796.281,867.325 796.5,868.5C 794.567,868.729 792.9,869.562 791.5,871C 787.943,873.409 784.943,876.242 782.5,879.5C 775.18,880.109 768.513,882.609 762.5,887C 724.242,901.116 690.242,894.449 660.5,867C 609.347,815.347 558.014,763.847 506.5,712.5C 496.948,700.423 493.448,686.756 496,671.5C 504.96,644.925 523.46,633.425 551.5,637C 565.228,641.902 576.561,650.069 585.5,661.5C 586.736,662.246 588.07,662.579 589.5,662.5C 591.844,663.917 594.177,665.25 596.5,666.5C 599.302,671.118 602.969,675.118 607.5,678.5C 608.386,679.325 608.719,680.325 608.5,681.5C 609.5,681.5 610.5,681.5 611.5,681.5C 611.5,682.5 611.5,683.5 611.5,684.5C 613.433,684.729 615.1,685.562 616.5,687C 617.337,688.011 617.67,689.178 617.5,690.5C 618.5,690.5 619.5,690.5 620.5,690.5C 620.281,691.675 620.614,692.675 621.5,693.5C 624.622,696.642 627.955,699.309 631.5,701.5C 631.5,702.5 631.5,703.5 631.5,704.5C 632.5,704.5 633.5,704.5 634.5,704.5C 634.5,705.5 634.5,706.5 634.5,707.5C 635.5,707.5 636.5,707.5 637.5,707.5C 637.5,708.5 637.5,709.5 637.5,710.5C 638.5,710.5 639.5,710.5 640.5,710.5C 640.5,711.5 640.5,712.5 640.5,713.5C 642.433,713.729 644.1,714.562 645.5,716C 651.633,723.301 658.3,730.134 665.5,736.5C 666.386,737.325 666.719,738.325 666.5,739.5C 671.06,741.72 674.726,745.054 677.5,749.5C 692.239,763.241 706.572,777.241 720.5,791.5C 721.386,792.325 721.719,793.325 721.5,794.5C 723.277,794.786 724.944,795.453 726.5,796.5C 727.966,795.865 729.3,795.031 730.5,794C 744.07,779.596 758.07,765.763 772.5,752.5C 774.262,752.643 775.929,752.309 777.5,751.5C 843.599,684.567 910.266,618.067 977.5,552C 995.909,540.582 1014.24,540.748 1032.5,552.5C 1037.41,556.821 1041.74,561.654 1045.5,567C 1046.45,567.483 1047.45,567.649 1048.5,567.5 Z"/></g>
<g><path style="opacity:1" fill="#fa5d5d" d="M 772.5,752.5 C 758.07,765.763 744.07,779.596 730.5,794C 729.3,795.031 727.966,795.865 726.5,796.5C 724.944,795.453 723.277,794.786 721.5,794.5C 721.719,793.325 721.386,792.325 720.5,791.5C 706.572,777.241 692.239,763.241 677.5,749.5C 674.726,745.054 671.06,741.72 666.5,739.5C 666.719,738.325 666.386,737.325 665.5,736.5C 658.3,730.134 651.633,723.301 645.5,716C 644.1,714.562 642.433,713.729 640.5,713.5C 640.5,712.5 640.5,711.5 640.5,710.5C 639.5,710.5 638.5,710.5 637.5,710.5C 637.5,709.5 637.5,708.5 637.5,707.5C 636.5,707.5 635.5,707.5 634.5,707.5C 634.5,706.5 634.5,705.5 634.5,704.5C 633.5,704.5 632.5,704.5 631.5,704.5C 631.5,703.5 631.5,702.5 631.5,701.5C 627.955,699.309 624.622,696.642 621.5,693.5C 620.614,692.675 620.281,691.675 620.5,690.5C 619.5,690.5 618.5,690.5 617.5,690.5C 617.67,689.178 617.337,688.011 616.5,687C 615.1,685.562 613.433,684.729 611.5,684.5C 611.5,683.5 611.5,682.5 611.5,681.5C 610.5,681.5 609.5,681.5 608.5,681.5C 608.719,680.325 608.386,679.325 607.5,678.5C 602.969,675.118 599.302,671.118 596.5,666.5C 594.177,665.25 591.844,663.917 589.5,662.5C 601.341,637.102 621.007,627.602 648.5,634C 652.972,635.777 656.972,638.444 660.5,642C 661.448,642.483 662.448,642.649 663.5,642.5C 663.5,643.5 663.5,644.5 663.5,645.5C 664.5,645.5 665.5,645.5 666.5,645.5C 666.281,646.675 666.614,647.675 667.5,648.5C 670.494,650.662 672.994,653.328 675,656.5C 677.688,658.908 680.521,660.908 683.5,662.5C 683.5,663.5 683.5,664.5 683.5,665.5C 684.5,665.5 685.5,665.5 686.5,665.5C 686.5,666.5 686.5,667.5 686.5,668.5C 687.5,668.5 688.5,668.5 689.5,668.5C 689.5,669.5 689.5,670.5 689.5,671.5C 690.5,671.5 691.5,671.5 692.5,671.5C 692.5,672.5 692.5,673.5 692.5,674.5C 693.5,674.5 694.5,674.5 695.5,674.5C 697.035,677.232 698.869,679.898 701,682.5C 704.339,684.673 707.172,687.34 709.5,690.5C 710.325,691.386 711.325,691.719 712.5,691.5C 712.5,692.5 712.5,693.5 712.5,694.5C 713.5,694.5 714.5,694.5 715.5,694.5C 715.5,695.5 715.5,696.5 715.5,697.5C 716.5,697.5 717.5,697.5 718.5,697.5C 718.5,698.5 718.5,699.5 718.5,700.5C 719.5,700.5 720.5,700.5 721.5,700.5C 721.5,701.5 721.5,702.5 721.5,703.5C 722.5,703.5 723.5,703.5 724.5,703.5C 726.035,706.232 727.869,708.898 730,711.5C 732.263,714.375 735.096,716.375 738.5,717.5C 738.5,718.5 738.5,719.5 738.5,720.5C 739.5,720.5 740.5,720.5 741.5,720.5C 741.5,721.5 741.5,722.5 741.5,723.5C 742.5,723.5 743.5,723.5 744.5,723.5C 744.5,724.5 744.5,725.5 744.5,726.5C 745.5,726.5 746.5,726.5 747.5,726.5C 747.5,727.5 747.5,728.5 747.5,729.5C 748.5,729.5 749.5,729.5 750.5,729.5C 750.281,730.675 750.614,731.675 751.5,732.5C 755.833,736.833 760.167,741.167 764.5,745.5C 765.325,746.386 766.325,746.719 767.5,746.5C 767.5,747.5 767.5,748.5 767.5,749.5C 768.5,749.5 769.5,749.5 770.5,749.5C 770.285,751.179 770.952,752.179 772.5,752.5 Z"/></g>
</svg>
