<?xml version="1.0" encoding="UTF-8"?>
<svg xmlns="http://www.w3.org/2000/svg" xmlns:xlink="http://www.w3.org/1999/xlink" width="192px" height="192px" viewBox="0 0 192 192" version="1.1">
<g id="surface1">
<path style=" stroke:none;fill-rule:nonzero;fill:rgb(94.901961%,27.058825%,27.058825%);fill-opacity:1;" d="M 106.3125 8.625 C 109.09375 10.488281 111.597656 12.964844 113.636719 15.617188 C 115.894531 18.324219 119.601562 19.949219 123 20.625 C 125.96875 20.890625 128.695312 20.761719 131.601562 20.0625 C 137.25 18.710938 143.160156 19.179688 148.226562 22.160156 C 153.066406 25.539062 155.753906 30.085938 156.925781 35.84375 C 157.109375 37.019531 157.246094 38.191406 157.371094 39.375 C 157.945312 44.789062 159.925781 49.105469 164.128906 52.628906 C 166.136719 54.058594 168.421875 55.015625 170.65625 56.023438 C 173.464844 57.335938 175.578125 58.921875 177.75 61.125 C 177.96875 61.339844 178.191406 61.558594 178.417969 61.78125 C 181.679688 65.242188 182.789062 69.898438 182.761719 74.527344 C 182.621094 79.105469 180.964844 82.585938 178.71875 86.472656 C 177.570312 88.46875 176.65625 90.335938 176.25 92.625 C 176.195312 92.921875 176.136719 93.21875 176.078125 93.523438 C 175.402344 98.199219 176.84375 102.519531 179.226562 106.488281 C 182.207031 111.476562 183.496094 116.6875 182.363281 122.457031 C 180.691406 128.433594 177.160156 132.335938 171.878906 135.460938 C 170.695312 136.085938 169.523438 136.601562 168.28125 137.085938 C 163.738281 138.882812 160.589844 142.242188 158.640625 146.660156 C 157.886719 148.765625 157.453125 150.796875 157.261719 153.015625 C 156.742188 159.042969 154.660156 164.074219 150.257812 168.320312 C 145.546875 172.082031 140.128906 172.984375 134.25 172.5 C 133.363281 172.335938 132.480469 172.148438 131.601562 171.9375 C 126.214844 170.644531 121.351562 171.179688 116.484375 173.929688 C 114.351562 175.351562 112.730469 177.179688 111.019531 179.066406 C 107.816406 182.59375 103.917969 185.648438 98.960938 186.066406 C 92.472656 186.242188 87.339844 185.390625 82.417969 180.769531 C 80.988281 179.375 79.582031 177.972656 78.363281 176.382812 C 76.105469 173.675781 72.398438 172.050781 69 171.375 C 66.03125 171.109375 63.304688 171.238281 60.398438 171.9375 C 54.75 173.289062 48.839844 172.820312 43.773438 169.839844 C 38.933594 166.460938 36.246094 161.914062 35.074219 156.15625 C 34.890625 154.980469 34.753906 153.808594 34.628906 152.625 C 34.054688 147.210938 32.074219 142.894531 27.871094 139.371094 C 25.875 137.949219 23.605469 136.984375 21.371094 136.003906 C 15.957031 133.527344 12.183594 129.433594 10.035156 123.882812 C 8.5 119.125 9.035156 113.480469 11.296875 109.050781 C 11.941406 107.863281 12.609375 106.691406 13.28125 105.523438 C 15.855469 101.007812 16.453125 96.539062 15.53125 91.398438 C 14.855469 89.140625 13.742188 87.195312 12.5625 85.171875 C 9.707031 80.261719 8.535156 75.167969 9.636719 69.542969 C 11.308594 63.566406 14.839844 59.664062 20.121094 56.539062 C 21.304688 55.914062 22.476562 55.398438 23.71875 54.914062 C 28.261719 53.117188 31.410156 49.757812 33.359375 45.339844 C 34.113281 43.234375 34.546875 41.203125 34.738281 38.984375 C 35.257812 32.957031 37.339844 27.925781 41.742188 23.679688 C 46.453125 19.917969 51.871094 19.015625 57.75 19.5 C 58.636719 19.664062 59.519531 19.851562 60.398438 20.0625 C 65.808594 21.359375 70.691406 20.816406 75.5625 18.023438 C 77.953125 16.425781 79.730469 14.304688 81.628906 12.175781 C 88.007812 5.113281 98.214844 3.929688 106.3125 8.625 Z M 106.3125 8.625 "/>
<path style=" stroke:none;fill-rule:nonzero;fill:rgb(99.607843%,99.215686%,99.215686%);fill-opacity:1;" d="M 131.71875 72.421875 C 133.15625 73.402344 134.214844 74.550781 135 76.125 C 135.078125 76.859375 135.078125 76.859375 135.09375 77.71875 C 135.109375 78.140625 135.109375 78.140625 135.125 78.570312 C 134.753906 81.375 132.65625 83.132812 130.753906 85.035156 C 130.4375 85.355469 130.117188 85.679688 129.789062 86.011719 C 128.917969 86.890625 128.046875 87.765625 127.167969 88.644531 C 126.621094 89.191406 126.074219 89.742188 125.527344 90.292969 C 123.613281 92.214844 121.695312 94.136719 119.777344 96.054688 C 117.996094 97.835938 116.222656 99.621094 114.449219 101.410156 C 112.921875 102.953125 111.390625 104.492188 109.855469 106.027344 C 108.941406 106.941406 108.03125 107.855469 107.121094 108.773438 C 106.105469 109.800781 105.082031 110.824219 104.058594 111.839844 C 103.761719 112.140625 103.46875 112.441406 103.164062 112.753906 C 100.785156 115.09375 97.820312 117.265625 94.40625 117.671875 C 93.941406 117.667969 93.476562 117.664062 93 117.65625 C 92.304688 117.664062 92.304688 117.664062 91.59375 117.671875 C 86.808594 117.066406 83.519531 113.464844 80.328125 110.214844 C 79.851562 109.734375 79.371094 109.253906 78.890625 108.773438 C 77.894531 107.773438 76.898438 106.773438 75.910156 105.765625 C 74.640625 104.476562 73.363281 103.199219 72.085938 101.921875 C 71.097656 100.933594 70.113281 99.941406 69.132812 98.949219 C 68.660156 98.476562 68.191406 98.003906 67.71875 97.53125 C 67.0625 96.875 66.410156 96.210938 65.761719 95.546875 C 65.566406 95.355469 65.375 95.164062 65.171875 94.964844 C 63.660156 93.40625 62.898438 92.015625 62.859375 89.835938 C 62.902344 88.128906 63.371094 87.183594 64.5 85.875 C 65.921875 84.621094 66.824219 83.945312 68.71875 83.90625 C 69 83.898438 69.28125 83.886719 69.570312 83.875 C 71.8125 84.171875 73.285156 85.523438 74.828125 87.078125 C 75.121094 87.367188 75.121094 87.367188 75.417969 87.664062 C 76.054688 88.300781 76.6875 88.941406 77.316406 89.582031 C 77.757812 90.027344 78.203125 90.472656 78.644531 90.914062 C 79.804688 92.078125 80.960938 93.246094 82.117188 94.414062 C 83.300781 95.609375 84.484375 96.800781 85.671875 97.988281 C 87.992188 100.324219 90.308594 102.660156 92.625 105 C 93.796875 104.480469 94.589844 103.878906 95.492188 102.96875 C 95.757812 102.703125 96.019531 102.4375 96.292969 102.164062 C 96.582031 101.875 96.867188 101.585938 97.164062 101.285156 C 97.46875 100.980469 97.773438 100.671875 98.085938 100.359375 C 98.75 99.691406 99.410156 99.027344 100.070312 98.359375 C 101.117188 97.304688 102.164062 96.253906 103.210938 95.203125 C 105.433594 92.96875 107.65625 90.734375 109.875 88.5 C 112.445312 85.910156 115.019531 83.320312 117.597656 80.734375 C 118.628906 79.699219 119.660156 78.660156 120.691406 77.617188 C 121.324219 76.984375 121.953125 76.347656 122.585938 75.714844 C 122.875 75.425781 123.160156 75.132812 123.457031 74.835938 C 123.722656 74.570312 123.984375 74.304688 124.257812 74.03125 C 124.601562 73.683594 124.601562 73.683594 124.953125 73.332031 C 126.964844 71.589844 129.277344 71.578125 131.71875 72.421875 Z M 131.71875 72.421875 "/>
</g>
</svg>
